<svg width="384" height="97" viewBox="0 0 384 97" fill="none" xmlns="http://www.w3.org/2000/svg">
<g clip-path="url(#clip0_19_189)">
<path d="M78.4176 68.5124V81.9379C78.4176 83.3544 77.2734 84.4876 75.8784 84.4876C74.4834 84.4876 73.3392 83.3386 73.3392 81.9379V69.7243C73.3392 64.8609 69.5304 60.9104 64.8438 60.9104C60.1416 60.9104 56.3484 64.8452 56.3484 69.7243V81.9536C56.3484 83.3701 55.2042 84.5033 53.8092 84.5033C52.3986 84.5033 51.27 83.3544 51.27 81.9536V59.2106C51.27 57.7941 52.4142 56.6609 53.8092 56.6609C55.2199 56.6609 56.3484 57.8098 56.3484 59.2106V60.7845C58.6212 57.92 62.1165 56.0943 66.035 56.0943C72.8846 56.0785 78.4176 61.6502 78.4176 68.5124Z" fill="#A2A2A2"/>
<path d="M82.1481 70.5586C82.1481 62.5631 88.5901 56.0786 96.5683 56.0786C104.546 56.0786 110.988 62.5631 110.988 70.5586C110.988 78.6012 104.546 85.07 96.5683 85.07C88.5901 85.07 82.1481 78.5855 82.1481 70.5586ZM105.91 70.5743C105.91 65.2388 101.725 60.9105 96.5683 60.9105C91.3958 60.9105 87.2265 65.2388 87.2265 70.5743C87.2265 75.9256 91.4115 80.2539 96.5683 80.2539C101.741 80.2381 105.91 75.9256 105.91 70.5743Z" fill="#A2A2A2"/>
<path d="M134.829 82.0952C134.829 83.197 134.092 84.1256 133.089 84.4246C129.358 85.4949 125.675 85.3532 122.916 83.6377C120.518 82.1267 119.029 79.5455 119.029 75.957V61.7761H115.424C114.092 61.7761 113.026 60.6901 113.026 59.368C113.026 58.0302 114.108 56.9599 115.424 56.9599H119.029V51.2309C119.029 49.8144 120.173 48.6812 121.568 48.6812C122.963 48.6812 124.108 49.8301 124.108 51.2309V56.9599H130.659C131.992 56.9599 133.058 58.0459 133.058 59.368C133.058 60.7058 131.976 61.7761 130.659 61.7761H124.108V75.4219C124.108 77.342 124.641 78.7271 125.879 79.4825C127.352 80.3954 129.547 80.3482 131.835 79.7501C133.34 79.3724 134.829 80.5213 134.829 82.0952Z" fill="#A2A2A2"/>
<path d="M153.261 58.6913C153.261 60.0134 152.29 61.0994 151.036 61.2725C146.459 61.7604 142.493 65.3962 142.493 71.3141V81.9694C142.493 83.3859 141.349 84.5191 139.954 84.5191C138.559 84.5191 137.415 83.3859 137.415 81.9694V59.1792C137.415 57.7627 138.559 56.6295 139.954 56.6295C141.349 56.6295 142.493 57.7784 142.493 59.1792V60.4226C144.641 57.8729 147.65 56.1258 150.644 56.0786C152.086 56.0786 153.261 57.259 153.261 58.6913Z" fill="#A2A2A2"/>
<path d="M182.854 70.5584C182.854 70.7472 182.854 70.9518 182.839 71.1565C182.823 72.5258 181.694 73.6275 180.315 73.6275H160.566C161.631 77.8928 165.001 80.2537 169.751 80.2537C172.384 80.2379 175.425 79.4352 178.089 78.0974C178.34 78.003 178.622 77.94 178.904 77.94C180.221 77.94 181.302 79.026 181.302 80.3481C181.302 81.3869 180.644 82.2683 179.735 82.5988C176.569 84.1412 173.011 85.0856 169.766 85.0856C161.083 85.0856 155.158 79.4824 155.142 70.5898C155.127 62.5944 161.334 56.1099 168.998 56.1099C176.663 56.0942 182.854 62.5629 182.854 70.5584ZM160.346 68.9215H177.65C176.945 64.3729 173.34 60.9103 168.998 60.9103C164.657 60.9103 161.052 64.3729 160.346 68.9215Z" fill="#A2A2A2"/>
<path d="M237.792 70.5585C237.792 78.6012 231.789 85.0699 224.359 85.0699C220.268 85.0699 216.601 83.1025 214.14 79.9862V94.4662C214.14 95.8827 212.995 97.0159 211.6 97.0159C210.205 97.0159 209.061 95.8669 209.061 94.4662V59.2106C209.061 57.7941 210.205 56.6609 211.6 56.6609C212.995 56.6609 214.14 57.8098 214.14 59.2106V61.178C216.601 58.0617 220.268 56.0943 224.359 56.0943C231.789 56.0785 237.792 62.563 237.792 70.5585ZM232.698 70.5742C232.698 65.2387 228.513 60.9104 223.356 60.9104C218.184 60.9104 214.014 65.2387 214.014 70.5742C214.014 75.9255 218.199 80.2538 223.356 80.2538C228.529 80.238 232.698 75.9255 232.698 70.5742Z" fill="#A2A2A2"/>
<path d="M257.353 58.6913C257.353 60.0134 256.381 61.0994 255.127 61.2725C250.551 61.7604 246.585 65.3962 246.585 71.3141V81.9694C246.585 83.3859 245.441 84.5191 244.046 84.5191C242.651 84.5191 241.507 83.3859 241.507 81.9694V59.1792C241.507 57.7627 242.651 56.6295 244.046 56.6295C245.441 56.6295 246.585 57.7784 246.585 59.1792V60.4226C248.732 57.8729 251.742 56.1258 254.736 56.0786C256.193 56.0786 257.353 57.259 257.353 58.6913Z" fill="#A2A2A2"/>
<path d="M271.256 70.5586C271.256 62.5631 277.698 56.0786 285.676 56.0786C293.654 56.0786 300.096 62.5631 300.096 70.5586C300.096 78.6012 293.654 85.07 285.676 85.07C277.714 85.07 271.256 78.5855 271.256 70.5586ZM295.034 70.5743C295.034 65.2388 290.849 60.9105 285.692 60.9105C280.52 60.9105 276.35 65.2388 276.35 70.5743C276.35 75.9256 280.535 80.2539 285.692 80.2539C290.849 80.2381 295.034 75.9256 295.034 70.5743Z" fill="#A2A2A2"/>
<path d="M319.673 58.6913C319.673 60.0134 318.702 61.0994 317.448 61.2725C312.871 61.7604 308.905 65.3962 308.905 71.3141V81.9694C308.905 83.3859 307.761 84.5191 306.366 84.5191C304.955 84.5191 303.827 83.3859 303.827 81.9694V59.1792C303.827 57.7627 304.971 56.6295 306.366 56.6295C307.777 56.6295 308.905 57.7784 308.905 59.1792V60.4226C311.053 57.8729 314.062 56.1258 317.056 56.0786C318.514 56.0786 319.673 57.259 319.673 58.6913Z" fill="#A2A2A2"/>
<path d="M323.874 49.8145C323.874 48.0989 325.238 46.7139 326.915 46.7139C328.592 46.7139 329.956 48.0989 329.956 49.8145C329.956 51.53 328.592 52.9151 326.915 52.9151C325.238 52.9151 323.874 51.53 323.874 49.8145ZM324.391 81.9537V59.2107C324.391 57.7942 325.535 56.661 326.93 56.661C328.341 56.661 329.47 57.8099 329.47 59.2107V81.9537C329.47 83.3702 328.325 84.5034 326.93 84.5034C325.52 84.5034 324.391 83.3545 324.391 81.9537Z" fill="#A2A2A2"/>
<path d="M354.266 82.0952C354.266 83.197 353.53 84.1256 352.526 84.4246C348.796 85.4949 345.113 85.3532 342.37 83.6377C339.971 82.1267 338.482 79.5455 338.482 75.957V61.7761H334.877C333.545 61.7761 332.479 60.6901 332.479 59.368C332.479 58.0302 333.561 56.9599 334.877 56.9599H338.482V51.2309C338.482 49.8144 339.627 48.6812 341.022 48.6812C342.432 48.6812 343.561 49.8301 343.561 51.2309V56.9599H350.113C351.445 56.9599 352.511 58.0459 352.511 59.368C352.511 60.7058 351.429 61.7761 350.113 61.7761H343.561V75.4219C343.561 77.342 344.094 78.7271 345.332 79.4825C346.805 80.3954 349 80.3482 351.288 79.7501C352.777 79.3724 354.266 80.5213 354.266 82.0952Z" fill="#A2A2A2"/>
<path d="M384 70.5585C384 70.7473 384 70.9519 383.984 71.1565C383.969 72.5258 382.84 73.6276 381.461 73.6276H361.711C362.777 77.8929 366.147 80.2537 370.896 80.2537C373.53 80.238 376.57 79.4353 379.235 78.0975C379.486 78.003 379.768 77.9401 380.05 77.9401C381.367 77.9401 382.448 79.0261 382.448 80.3482C382.448 81.3869 381.79 82.2683 380.881 82.5989C377.715 84.1413 374.157 85.0856 370.912 85.0856C362.229 85.0856 356.304 79.4825 356.288 70.5899C356.272 62.5945 362.479 56.11 370.144 56.11C377.809 56.0942 384 62.563 384 70.5585ZM361.492 68.9216H378.796C378.091 64.373 374.486 60.9104 370.144 60.9104C365.802 60.9104 362.197 64.373 361.492 68.9216ZM369.329 49.6097L372.824 42.6058C373.232 41.7402 374.11 41.1421 375.128 41.1421C376.539 41.1421 377.683 42.291 377.683 43.7076C377.683 44.2899 377.48 44.825 377.15 45.2657L372.589 51.6243C372.244 52.0965 371.68 52.3798 371.053 52.3798C369.642 52.3955 368.718 50.8846 369.329 49.6097Z" fill="#A2A2A2"/>
<path d="M11.5831 42.3695L0.250752 19.0756C-0.360539 17.8008 0.156707 16.2741 1.42631 15.6603C2.68024 15.0464 4.2163 15.5658 4.82759 16.8407L13.8716 35.46L22.9155 16.8407C23.5268 15.5816 25.0472 15.0464 26.3168 15.6603C27.5707 16.2741 28.1036 17.8008 27.4924 19.0756L16.207 42.2593C15.9562 42.8259 15.5017 43.2981 14.9217 43.5499C13.6678 44.1323 12.1944 43.5971 11.5831 42.3695Z" fill="#1D87AE"/>
<path d="M27.6648 29.4165C27.6648 21.421 34.1069 14.9365 42.085 14.9365C50.0631 14.9365 56.5052 21.421 56.5052 29.4165C56.5052 37.4434 50.0631 43.9279 42.085 43.9279C34.1069 43.9279 27.6648 37.4434 27.6648 29.4165ZM51.4424 29.4165C51.4424 24.0809 47.2574 19.7527 42.1007 19.7527C36.9439 19.7527 32.7589 24.0809 32.7589 29.4165C32.7589 34.7678 36.9439 39.096 42.1007 39.096C47.2574 39.096 51.4424 34.7678 51.4424 29.4165Z" fill="#1D87AE"/>
<path d="M80.3611 40.9533C80.3611 42.055 79.6244 42.9836 78.6213 43.2826C74.8908 44.3529 71.2074 44.2113 68.4645 42.4957C66.0663 40.9847 64.5773 38.4035 64.5773 34.815V20.6184H60.9722C59.6399 20.6184 58.5741 19.5324 58.5741 18.2103C58.5741 16.8725 59.6556 15.8022 60.9722 15.8022H64.5773V10.0732C64.5773 8.65665 65.7058 7.52344 67.1165 7.52344C68.5272 7.52344 69.6557 8.67239 69.6557 10.0732V15.8022H76.2075C77.5398 15.8022 78.6056 16.8882 78.6056 18.2103C78.6056 19.5481 77.5241 20.6184 76.2075 20.6184H69.6557V34.2641C69.6557 36.1843 70.1886 37.5694 71.4269 38.3248C72.9002 39.2377 75.0946 39.1905 77.383 38.5924C78.8721 38.2304 80.3611 39.3794 80.3611 40.9533Z" fill="#1D87AE"/>
<path d="M98.7783 17.5492C98.7783 18.8713 97.8065 19.9573 96.5526 20.1304C91.9757 20.6183 88.0102 24.2541 88.0102 30.172V40.8273C88.0102 42.2438 86.8816 43.3771 85.471 43.3771C84.0603 43.3771 82.9318 42.2281 82.9318 40.8273V18.0371C82.9318 16.6206 84.0603 15.4874 85.471 15.4874C86.8816 15.4874 88.0102 16.6363 88.0102 18.0371V19.2805C90.1575 16.7308 93.167 14.9837 96.1607 14.9365C97.6184 14.9365 98.7783 16.1012 98.7783 17.5492Z" fill="#1D87AE"/>
<path d="M128.387 29.4165C128.387 29.6211 128.387 29.81 128.371 29.9988C128.355 31.3681 127.227 32.4699 125.847 32.4699H106.098C107.164 36.7352 110.55 39.096 115.283 39.096C117.916 39.0803 120.957 38.2776 123.622 36.9398C123.873 36.8453 124.155 36.7824 124.437 36.7824C125.753 36.7824 126.835 37.8526 126.835 39.1905C126.835 40.2292 126.177 41.1106 125.268 41.4411C122.101 42.9993 118.543 43.9279 115.299 43.9279C106.615 43.9279 100.691 38.3248 100.675 29.4165C100.659 21.421 106.866 14.9365 114.531 14.9365C122.195 14.9365 128.387 21.421 128.387 29.4165ZM105.863 27.7639H123.167C122.462 23.2153 118.857 19.7527 114.515 19.7527C110.173 19.7684 106.584 23.2153 105.863 27.7639Z" fill="#1D87AE"/>
<path d="M203.81 27.3548V40.7802C203.81 42.1967 202.666 43.3142 201.271 43.33C199.876 43.3142 198.732 42.1967 198.732 40.7802V28.5509C198.732 23.6561 194.923 19.7528 190.237 19.7528C185.55 19.7685 181.741 23.6561 181.741 28.5509V40.7802C181.741 42.1967 180.613 43.33 179.202 43.33C177.791 43.33 176.663 42.181 176.663 40.7802V28.5509C176.663 23.6876 172.854 19.7371 168.168 19.7371C163.481 19.7371 159.672 23.6876 159.672 28.5509V40.7802C159.672 42.1967 158.544 43.33 157.133 43.33C155.722 43.33 154.594 42.1967 154.594 40.7802V18.053C154.594 16.6365 155.722 15.5032 157.133 15.5032C158.544 15.5032 159.672 16.6522 159.672 18.053V19.6269C161.945 16.7624 165.44 14.9366 169.359 14.9366C173.81 14.9366 177.713 17.2975 179.892 20.8231C182.29 17.2818 186.538 14.9209 191.224 14.9209C198.387 14.9366 203.81 20.4925 203.81 27.3548Z" fill="#1D87AE"/>
<path d="M235.253 29.4164C235.253 29.621 235.253 29.8098 235.237 29.9987C235.222 31.368 234.093 32.4697 232.714 32.4697H212.964C214.03 36.735 217.416 39.0959 222.149 39.0959C224.783 39.0802 227.823 38.2775 230.488 36.9396C230.739 36.8452 231.021 36.7822 231.303 36.7822C232.62 36.7822 233.701 37.8525 233.701 39.1903C233.701 40.2291 233.043 41.1105 232.134 41.441C228.968 42.9992 225.41 43.9278 222.165 43.9278C213.482 43.9278 207.557 38.3247 207.541 29.4164C207.525 21.4209 213.732 14.9364 221.397 14.9364C229.062 14.9364 235.253 21.4209 235.253 29.4164ZM212.729 27.7637H230.033C229.328 23.2152 225.723 19.7526 221.381 19.7526C217.055 19.7683 213.45 23.2152 212.729 27.7637ZM220.566 8.46763L224.062 1.46374C224.469 0.598085 225.347 0 226.366 0C227.776 0 228.921 1.14895 228.921 2.56547C228.921 3.14782 228.732 3.69869 228.403 4.12364L223.842 10.4822C223.497 10.9387 222.933 11.2534 222.306 11.2534C220.895 11.2377 219.971 9.74249 220.566 8.46763Z" fill="#1D87AE"/>
<path d="M259.093 40.9533C259.093 42.055 258.356 42.9836 257.353 43.2826C253.623 44.3529 249.939 44.2113 247.196 42.4957C244.798 40.9847 243.309 38.4035 243.309 34.815V20.6184H239.704C238.372 20.6184 237.306 19.5324 237.306 18.2103C237.306 16.8725 238.387 15.8022 239.704 15.8022H243.309V10.0732C243.309 8.65665 244.438 7.52344 245.848 7.52344C247.259 7.52344 248.388 8.67239 248.388 10.0732V15.8022H254.939C256.272 15.8022 257.337 16.8882 257.337 18.2103C257.337 19.5481 256.256 20.6184 254.939 20.6184H248.388V34.2641C248.388 36.1843 248.92 37.5694 250.159 38.3248C251.632 39.2377 253.826 39.1905 256.115 38.5924C257.604 38.2304 259.093 39.3794 259.093 40.9533Z" fill="#1D87AE"/>
<path d="M261.554 8.65626C261.554 6.9407 262.917 5.55566 264.594 5.55566C266.272 5.55566 267.635 6.9407 267.635 8.65626C267.635 10.3718 266.272 11.7569 264.594 11.7569C262.917 11.7569 261.554 10.3718 261.554 8.65626ZM262.055 81.9532V18.0525C262.055 16.636 263.184 15.5028 264.594 15.5028C266.005 15.5028 267.134 16.6517 267.134 18.0525V81.9532C267.134 83.3697 266.005 84.5029 264.594 84.5029C263.199 84.5029 262.055 83.354 262.055 81.9532Z" fill="#1D87AE"/>
<path d="M298.984 29.4165C298.984 29.6211 298.984 29.81 298.968 29.9988C298.952 31.3681 297.824 32.4699 296.445 32.4699H276.695C277.761 36.7352 281.147 39.096 285.88 39.096C288.514 39.0803 291.554 38.2776 294.219 36.9398C294.47 36.8453 294.752 36.7824 295.034 36.7824C296.351 36.7824 297.432 37.8526 297.432 39.1905C297.432 40.2292 296.774 41.1106 295.865 41.4411C292.698 42.9993 289.14 43.9279 285.896 43.9279C277.212 43.9279 271.288 38.3248 271.272 29.4165C271.256 21.421 277.463 14.9365 285.128 14.9365C292.793 14.9365 298.984 21.421 298.984 29.4165ZM276.476 27.7639H293.78C293.075 23.2153 289.47 19.7527 285.128 19.7527C280.786 19.7684 277.181 23.2153 276.476 27.7639Z" fill="#1D87AE"/>
<path d="M318.545 17.5492C318.545 18.8713 317.573 19.9573 316.319 20.1304C311.742 20.6183 307.777 24.2541 307.777 30.172V40.8273C307.777 42.2438 306.648 43.3771 305.238 43.3771C303.827 43.3771 302.698 42.2281 302.698 40.8273V18.0371C302.698 16.6206 303.827 15.4874 305.238 15.4874C306.648 15.4874 307.777 16.6363 307.777 18.0371V19.2805C309.924 16.7308 312.934 14.9837 315.927 14.9365C317.385 14.9365 318.545 16.1012 318.545 17.5492Z" fill="#1D87AE"/>
</g>
<defs>
<clipPath id="clip0_19_189">
<rect width="384" height="97" fill="white"/>
</clipPath>
</defs>
</svg>
